# xmcd
# 
# Track frame offsets:
#     150
#     24524
#     42968
#     61158
#     80713
#     93287
#     114825
#     131284
#     156235
#     179359
#     199335
#     213894
#     251602
# 
# Disc length: 3628
# 
# Revision: 1
# Processed by: cddbd v1.5.2PL0 Copyright (c) Steve Scherf et al.
# Submitted via: fre:ac v1.0.31
# 
DISCID=a70e2a0d
DTITLE=Nathan East - Nathan East
DYEAR=2014
DGENRE=Jazz
TTITLE0=101 Eastbound
TTITLE1=Sir Duke
TTITLE2=Letter From Home
TTITLE3=Moondance feat. Michael Mc Donald
TTITLE4=I Can Let Go Now feat. Sara Bareilles
TTITLE5=Daft Funk feat. Mr. Talkbox
TTITLE6=Sevenate
TTITLE7=Can't Find My Way Home feat. Eric Clapton
TTITLE8=Moodswing
TTITLE9=Overjoyed
TTITLE10=Yesterday (Duet with Noah East)
TTITLE11=Madiba
TTITLE12=America The Beautiful
EXTD=YEAR: 2014
EXTT0=
EXTT1=
EXTT2=
EXTT3=
EXTT4=
EXTT5=
EXTT6=
EXTT7=
EXTT8=
EXTT9=
EXTT10=
EXTT11=
EXTT12=
PLAYORDER=
